<svg width="24" height="24" viewBox="0 0 24 24" fill="none" xmlns="http://www.w3.org/2000/svg">
<path d="M2.83691 3.00244C5.51016 1.99932 8.48984 1.99932 11.1631 3.00244L11.25 3.03467V21.5239L9.83203 20.9917C8.01503 20.3098 5.98497 20.3098 4.16797 20.9917C2.83202 21.4928 1.25002 20.5943 1.25 19.0796V5.229C1.25004 4.22204 1.90204 3.35327 2.83691 3.00244ZM12.8369 3.00244C15.5102 1.99932 18.4898 1.99932 21.1631 3.00244C22.098 3.35327 22.75 4.22204 22.75 5.229V19.0796C22.75 20.5943 21.168 21.4928 19.832 20.9917C18.015 20.3098 15.985 20.3098 14.168 20.9917L12.75 21.5239V3.03467L12.8369 3.00244Z" fill="url(#paint0_linear_1120_2085)"/>
<defs>
<linearGradient id="paint0_linear_1120_2085" x1="11.9037" y1="2.25049" x2="11.9037" y2="21.3236" gradientUnits="userSpaceOnUse">
<stop stop-color="#D53F33"/>
<stop offset="1" stop-color="#990B00"/>
</linearGradient>
</defs>
</svg>
