<svg width="24" height="24" viewBox="0 0 24 24" fill="none" xmlns="http://www.w3.org/2000/svg">
<circle cx="4" cy="4" r="4" transform="matrix(-1 0 0 1 16 3)" fill="url(#paint0_linear_1120_2093)" stroke="url(#paint1_linear_1120_2093)" stroke-width="1.5"/>
<path d="M5 16.9347C5 16.0743 5.54085 15.3068 6.35109 15.0175C10.004 13.7128 13.996 13.7128 17.6489 15.0175C18.4591 15.3068 19 16.0743 19 16.9347V18.2502C19 19.4376 17.9483 20.3498 16.7728 20.1818L15.8184 20.0455C13.2856 19.6837 10.7144 19.6837 8.18162 20.0455L7.22721 20.1818C6.0517 20.3498 5 19.4376 5 18.2502V16.9347Z" fill="url(#paint2_linear_1120_2093)" stroke="url(#paint3_linear_1120_2093)" stroke-width="1.5"/>
<defs>
<linearGradient id="paint0_linear_1120_2093" x1="3.96418" y1="-6.80333e-09" x2="3.96417" y2="7.91667" gradientUnits="userSpaceOnUse">
<stop stop-color="#D53F33"/>
<stop offset="1" stop-color="#990B00"/>
</linearGradient>
<linearGradient id="paint1_linear_1120_2093" x1="3.96418" y1="-6.80333e-09" x2="3.96417" y2="7.91667" gradientUnits="userSpaceOnUse">
<stop stop-color="#D53F33"/>
<stop offset="1" stop-color="#990B00"/>
</linearGradient>
<linearGradient id="paint2_linear_1120_2093" x1="11.9373" y1="13" x2="11.9373" y2="20.4219" gradientUnits="userSpaceOnUse">
<stop stop-color="#D53F33"/>
<stop offset="1" stop-color="#990B00"/>
</linearGradient>
<linearGradient id="paint3_linear_1120_2093" x1="11.9373" y1="13" x2="11.9373" y2="20.4219" gradientUnits="userSpaceOnUse">
<stop stop-color="#D53F33"/>
<stop offset="1" stop-color="#990B00"/>
</linearGradient>
</defs>
</svg>
