<svg width="24" height="24" viewBox="0 0 24 24" fill="none" xmlns="http://www.w3.org/2000/svg">
<path d="M1.3125 3.76562H3.9375C4.08254 3.76562 4.22166 3.82322 4.32422 3.92578C4.42678 4.02834 4.48438 4.16746 4.48438 4.3125V21.9375C4.48438 22.0825 4.42678 22.2217 4.32422 22.3242C4.22166 22.4268 4.08254 22.4844 3.9375 22.4844H1.3125C1.16746 22.4844 1.02834 22.4268 0.925781 22.3242C0.823222 22.2217 0.765625 22.0825 0.765625 21.9375V4.3125C0.765625 4.16746 0.823222 4.02834 0.925781 3.92578C1.02834 3.82322 1.16746 3.76563 1.3125 3.76562ZM11.2344 19.5156V21.9375C11.2344 22.0825 11.1768 22.2217 11.0742 22.3242C10.9717 22.4268 10.8325 22.4844 10.6875 22.4844H5.8125C5.66746 22.4844 5.52834 22.4268 5.42578 22.3242C5.32322 22.2217 5.26562 22.0825 5.26562 21.9375V19.5156H11.2344ZM12.5625 1.51562H15.9375C16.0825 1.51562 16.2217 1.57322 16.3242 1.67578C16.4268 1.77834 16.4844 1.91746 16.4844 2.0625V21.9375C16.4844 22.0825 16.4268 22.2217 16.3242 22.3242C16.2217 22.4268 16.0825 22.4844 15.9375 22.4844H12.5625C12.4175 22.4844 12.2783 22.4268 12.1758 22.3242C12.0732 22.2217 12.0156 22.0825 12.0156 21.9375V2.0625C12.0156 1.91746 12.0732 1.77834 12.1758 1.67578C12.2783 1.57322 12.4175 1.51563 12.5625 1.51562ZM21.3945 3.79883C21.4641 3.81992 21.5289 3.85496 21.585 3.90137C21.641 3.94779 21.687 4.00485 21.7207 4.06934C21.7543 4.13373 21.7752 4.20399 21.7812 4.27637L23.1914 21.4492C23.203 21.5897 23.1601 21.7294 23.0713 21.8389C22.9824 21.9484 22.8539 22.0196 22.7139 22.0371L19.332 22.459C19.2588 22.4681 19.1842 22.4617 19.1133 22.4414C19.0424 22.4211 18.9762 22.3873 18.9189 22.3408C18.8617 22.2943 18.8147 22.2361 18.7803 22.1709C18.7459 22.1057 18.7248 22.0344 18.7188 21.9609L17.3125 4.71875C17.3008 4.57684 17.345 4.43605 17.4355 4.32617C17.5264 4.21617 17.657 4.14521 17.7988 4.12988L21.1797 3.77832C21.252 3.7708 21.325 3.7778 21.3945 3.79883ZM11.2344 11.2656V17.9844H5.26562V11.2656H11.2344ZM5.8125 6.76562H10.6875C10.8325 6.76562 10.9717 6.82322 11.0742 6.92578C11.1768 7.02834 11.2344 7.16746 11.2344 7.3125V9.73438H5.26562V7.3125C5.26562 7.16746 5.32322 7.02834 5.42578 6.92578C5.52834 6.82322 5.66746 6.76563 5.8125 6.76562Z" fill="url(#paint0_linear_582_9319)" stroke="url(#paint1_linear_582_9319)" stroke-width="0.03125"/>
<defs>
<linearGradient id="paint0_linear_582_9319" x1="11.8788" y1="1.5" x2="11.8788" y2="22.2813" gradientUnits="userSpaceOnUse">
<stop stop-color="#D53F33"/>
<stop offset="1" stop-color="#990B00"/>
</linearGradient>
<linearGradient id="paint1_linear_582_9319" x1="11.8788" y1="1.5" x2="11.8788" y2="22.2813" gradientUnits="userSpaceOnUse">
<stop stop-color="#D53F33"/>
<stop offset="1" stop-color="#990B00"/>
</linearGradient>
</defs>
</svg>
