<svg width="19" height="19" viewBox="0 0 19 19" fill="none" xmlns="http://www.w3.org/2000/svg">
<path d="M0 8.34211C0 7.11792 0.56058 5.96114 1.52142 5.20258L7.02142 0.860468C8.47466 -0.286824 10.5253 -0.286822 11.9786 0.86047L17.4786 5.20258C18.4394 5.96114 19 7.11792 19 8.34211V14.9037C19 17.1128 17.2091 18.9037 15 18.9037H13.5C12.9477 18.9037 12.5 18.456 12.5 17.9037V14.9037C12.5 13.7991 11.6046 12.9037 10.5 12.9037H8.5C7.39543 12.9037 6.5 13.7991 6.5 14.9037V17.9037C6.5 18.456 6.05228 18.9037 5.5 18.9037H4C1.79086 18.9037 0 17.1128 0 14.9037L0 8.34211Z" fill="url(#paint0_linear_106_1425)"/>
<defs>
<linearGradient id="paint0_linear_106_1425" x1="9.41493" y1="-1.6076e-08" x2="9.41491" y2="18.7068" gradientUnits="userSpaceOnUse">
<stop stop-color="#D53F33"/>
<stop offset="1" stop-color="#990B00"/>
</linearGradient>
</defs>
</svg>
