<svg width="24" height="24" viewBox="0 0 24 24" fill="none" xmlns="http://www.w3.org/2000/svg">
<path d="M20 6.42871C21.1046 6.42871 22 7.32414 22 8.42871V10.083C22 10.9662 21.4202 11.7452 20.5742 11.999L13.1494 14.2266C12.3997 14.4515 11.6003 14.4515 10.8506 14.2266L3.42578 11.999C2.57981 11.7452 2 10.9662 2 10.083V8.42871C2 7.32414 2.89543 6.42871 4 6.42871H20ZM12 9.10742C11.5858 9.10742 11.25 9.44321 11.25 9.85742V11.5713C11.25 11.9855 11.5858 12.3213 12 12.3213C12.4142 12.3213 12.75 11.9855 12.75 11.5713V9.85742C12.75 9.44321 12.4142 9.10742 12 9.10742Z" fill="url(#paint0_linear_464_6418)"/>
<path d="M21.915 16.9995C21.9149 19.6228 19.7883 21.7495 17.165 21.7495H6.83203C4.20874 21.7495 2.08214 19.6228 2.08203 16.9995V13.0083C2.35914 13.1899 2.66387 13.3372 2.99316 13.436L10.418 15.6636C11.4489 15.9728 12.5482 15.9728 13.5791 15.6636L21.0039 13.436C21.3332 13.3372 21.6379 13.1899 21.915 13.0083V16.9995ZM21.8516 10.8315C21.629 11.3824 21.1677 11.8202 20.5732 11.9985L13.1475 14.2261C12.3979 14.4509 11.5992 14.4509 10.8496 14.2261L3.42383 11.9985C2.82928 11.8201 2.36709 11.3825 2.14453 10.8315L11.999 12.4995L21.8516 10.8315Z" fill="url(#paint1_linear_464_6418)"/>
<path d="M15.3346 6.42855V5C15.3346 3.89543 14.4392 3 13.3346 3H10.668C9.5634 3 8.66797 3.89543 8.66797 5L8.66797 6.42855" stroke="url(#paint2_linear_464_6418)" stroke-width="1.5"/>
<defs>
<linearGradient id="paint0_linear_464_6418" x1="11.9104" y1="6.42871" x2="11.9104" y2="14.3124" gradientUnits="userSpaceOnUse">
<stop stop-color="#D53F33"/>
<stop offset="1" stop-color="#990B00"/>
</linearGradient>
<linearGradient id="paint1_linear_464_6418" x1="11.9097" y1="10.8315" x2="11.9097" y2="21.6358" gradientUnits="userSpaceOnUse">
<stop stop-color="#D53F33"/>
<stop offset="1" stop-color="#990B00"/>
</linearGradient>
<linearGradient id="paint2_linear_464_6418" x1="11.9715" y1="3" x2="11.9715" y2="6.39284" gradientUnits="userSpaceOnUse">
<stop stop-color="#D53F33"/>
<stop offset="1" stop-color="#990B00"/>
</linearGradient>
</defs>
</svg>
