<svg width="24" height="24" viewBox="0 0 24 24" fill="none" xmlns="http://www.w3.org/2000/svg">
<path d="M18.769 13.6337C19.7452 13.7329 20.7123 13.9448 21.6489 14.2734C22.4591 14.5576 23.0005 15.3111 23.0005 16.1562V17.0576C23.0005 18.2391 21.9345 19.1475 20.7436 18.9804L20.4702 18.9413C20.415 18.9336 20.3595 18.9282 20.3042 18.9208C20.3784 18.6199 20.4204 18.3051 20.4204 17.9794V16.8593C20.4204 15.5591 19.7871 14.3696 18.769 13.6337ZM17.5005 5.99994C19.3815 6.00019 20.9065 7.49799 20.9067 9.34564C20.9067 11.1934 19.3816 12.6921 17.5005 12.6923C17.0324 12.6923 16.5862 12.5984 16.1802 12.4306C17.2208 11.4052 17.8667 9.98063 17.8667 8.40424C17.8667 7.54539 17.6741 6.73191 17.3315 6.00287C17.3873 6.0002 17.444 5.99994 17.5005 5.99994Z" fill="url(#paint0_linear_328_1558)"/>
<path d="M5.61182 13.6337C4.63569 13.7329 3.66856 13.9448 2.73193 14.2734C1.92176 14.5576 1.38037 15.3111 1.38037 16.1562V17.0576C1.38037 18.2391 2.44638 19.1475 3.63721 18.9804L3.91064 18.9413C3.96587 18.9336 4.02139 18.9282 4.07666 18.9208C4.00243 18.6199 3.96049 18.3051 3.96045 17.9794V16.8593C3.96047 15.5591 4.59375 14.3696 5.61182 13.6337ZM6.88037 5.99994C4.99938 6.00019 3.4743 7.49798 3.47412 9.34564C3.47412 11.1935 4.99927 12.6921 6.88037 12.6923C7.34849 12.6923 7.79468 12.5984 8.20068 12.4306C7.16006 11.4052 6.51417 9.98063 6.51416 8.40424C6.51416 7.54539 6.70671 6.73191 7.04932 6.00287C6.99352 6.0002 6.93684 5.99994 6.88037 5.99994Z" fill="url(#paint1_linear_328_1558)"/>
<path fill-rule="evenodd" clip-rule="evenodd" d="M16.3671 8.40419C16.3671 6.10986 14.5071 4.24994 12.2128 4.24994C9.91847 4.24994 8.05855 6.10986 8.05855 8.40419C8.05855 10.6985 9.91847 12.5584 12.2128 12.5584C14.5071 12.5584 16.3671 10.6985 16.3671 8.40419Z" fill="url(#paint2_linear_328_1558)"/>
<path fill-rule="evenodd" clip-rule="evenodd" d="M7.15298 14.5214C10.425 13.3528 14.0006 13.3528 17.2726 14.5214C18.2607 14.8743 18.9203 15.8102 18.9203 16.8594V17.979C18.9203 19.4459 17.6209 20.5728 16.1687 20.3654L15.8351 20.3177C13.4325 19.9745 10.9932 19.9745 8.59048 20.3177L8.25693 20.3654C6.80467 20.5728 5.50536 19.4459 5.50536 17.979V16.8594C5.50536 15.8102 6.16492 14.8743 7.15298 14.5214Z" fill="url(#paint3_linear_328_1558)"/>
<defs>
<linearGradient id="paint0_linear_328_1558" x1="19.5598" y1="5.99994" x2="19.5598" y2="18.8649" gradientUnits="userSpaceOnUse">
<stop stop-color="#D53F33"/>
<stop offset="1" stop-color="#990B00"/>
</linearGradient>
<linearGradient id="paint1_linear_328_1558" x1="4.82107" y1="5.99994" x2="4.82108" y2="18.8649" gradientUnits="userSpaceOnUse">
<stop stop-color="#D53F33"/>
<stop offset="1" stop-color="#990B00"/>
</linearGradient>
<linearGradient id="paint2_linear_328_1558" x1="12.1527" y1="4.24994" x2="12.1527" y2="20.2219" gradientUnits="userSpaceOnUse">
<stop stop-color="#D53F33"/>
<stop offset="1" stop-color="#990B00"/>
</linearGradient>
<linearGradient id="paint3_linear_328_1558" x1="12.1527" y1="4.24994" x2="12.1527" y2="20.2219" gradientUnits="userSpaceOnUse">
<stop stop-color="#D53F33"/>
<stop offset="1" stop-color="#990B00"/>
</linearGradient>
</defs>
</svg>
