<svg width="21" height="21" viewBox="0 0 21 21" fill="none" xmlns="http://www.w3.org/2000/svg">
<path d="M0.75 9.09222C0.75 7.86803 1.31058 6.71125 2.27142 5.95269L7.77142 1.61058C9.22466 0.463286 11.2753 0.463288 12.7286 1.61058L18.2286 5.95269C19.1894 6.71125 19.75 7.86803 19.75 9.09222V15.6538C19.75 17.8629 17.9591 19.6538 15.75 19.6538H14.25C13.6977 19.6538 13.25 19.2061 13.25 18.6538V15.6538C13.25 14.5492 12.3546 13.6538 11.25 13.6538H9.25C8.14543 13.6538 7.25 14.5492 7.25 15.6538V18.6538C7.25 19.2061 6.80228 19.6538 6.25 19.6538H4.75C2.54086 19.6538 0.75 17.8629 0.75 15.6538L0.75 9.09222Z" stroke="#909090" stroke-width="1.5"/>
</svg>
