<svg width="20" height="24" viewBox="0 0 20 24" fill="none" xmlns="http://www.w3.org/2000/svg">
<g clip-path="url(#clip0_766_3412)">
<path d="M16.9655 1.86771C15.8769 0.605566 13.9091 0.0644531 11.3916 0.0644531H4.08539C3.83631 0.064414 3.59538 0.154788 3.40595 0.319318C3.21652 0.483849 3.09103 0.711736 3.05204 0.96199L0.00984765 20.5885C-0.0506211 20.9755 0.243988 21.326 0.629613 21.326H5.14024L6.27305 14.017L6.2379 14.2459C6.3186 13.7293 6.75297 13.3482 7.26735 13.3482H9.41079C13.6216 13.3482 16.9187 11.6085 17.8818 6.57569C17.9104 6.42684 17.9352 6.28196 17.9566 6.14043C17.835 6.07494 17.835 6.07494 17.9566 6.14043C18.2434 4.28027 17.9546 3.01407 16.9655 1.86771Z" fill="#27346A"/>
<path d="M7.99899 5.47033C8.12227 5.41051 8.25716 5.37955 8.39375 5.37974H14.1217C14.8 5.37974 15.4327 5.42464 16.0108 5.51929C16.1726 5.54555 16.3335 5.57687 16.4934 5.61322C16.7199 5.66409 16.9439 5.72634 17.1645 5.79974C17.4487 5.89629 17.7134 6.00874 17.9566 6.14043C18.2434 4.27955 17.9546 3.01407 16.9655 1.86771C15.8763 0.605566 13.9091 0.0644531 11.3916 0.0644531H4.08477C3.57032 0.0644531 3.13266 0.445433 3.05204 0.961989L0.00984808 20.5878C-0.0506207 20.9754 0.243989 21.3254 0.628989 21.3254H5.14024L7.49047 6.1649C7.5136 6.01589 7.57196 5.87483 7.66054 5.75384C7.74912 5.63285 7.86527 5.53556 7.99899 5.47033Z" fill="#27346A"/>
<path d="M17.8822 6.57588C16.9191 11.6079 13.6221 13.3484 9.41123 13.3484H7.26717C6.75279 13.3484 6.31834 13.7295 6.23842 14.2461L4.82912 23.3339C4.77646 23.6726 5.03396 23.9795 5.37084 23.9795H9.17318C9.39099 23.9795 9.60163 23.9004 9.76723 23.7564C9.93282 23.6125 10.0425 23.4132 10.0765 23.1944L10.1136 22.9973L10.8302 18.3772L10.8764 18.1219C10.9104 17.903 11.0201 17.7037 11.1857 17.5598C11.3512 17.4159 11.5619 17.3368 11.7797 17.3367H12.3487C16.0321 17.3367 18.9162 15.8145 19.759 11.4122C20.1108 9.57247 19.9288 8.03647 18.9982 6.95758C18.7159 6.6308 18.3654 6.36092 17.957 6.14062C17.9349 6.28288 17.9109 6.42704 17.8822 6.57588Z" fill="#2790C3"/>
<path d="M16.9503 5.73186C16.8001 5.68725 16.6485 5.64776 16.4958 5.61345C16.3358 5.57768 16.1749 5.54656 16.0132 5.52015C15.4345 5.42486 14.8023 5.37988 14.1234 5.37988H8.39609C8.25942 5.37965 8.12446 5.41087 8.00133 5.4712C7.86743 5.53619 7.75114 5.63341 7.66251 5.75444C7.57389 5.87547 7.51561 6.01666 7.49273 6.16576L6.27539 14.0173L6.24023 14.2461C6.32031 13.7295 6.75469 13.3484 7.26914 13.3484H9.4132C13.624 13.3484 16.921 11.6087 17.8841 6.57591C17.9128 6.42706 17.9369 6.28282 17.959 6.14065C17.7151 6.00979 17.4511 5.89644 17.1668 5.8006C17.0951 5.7764 17.0229 5.75349 16.9504 5.73186" fill="#1F264F"/>
</g>
<defs>
<clipPath id="clip0_766_3412">
<rect width="20" height="24" fill="white"/>
</clipPath>
</defs>
</svg>
