<svg width="18" height="18" viewBox="0 0 18 18" fill="none" xmlns="http://www.w3.org/2000/svg">
<path d="M15.9676 5.47647C15.8854 5.16699 15.7233 4.88452 15.4976 4.65738C15.2719 4.43023 14.9905 4.26638 14.6816 4.18222C13.5473 3.87622 8.99906 3.87622 8.99906 3.87622C8.99906 3.87622 4.45081 3.87622 3.31656 4.18222C3.00761 4.26638 2.72619 4.43023 2.50049 4.65738C2.27479 4.88452 2.11274 5.16699 2.03056 5.47647C1.72656 6.61797 1.72656 8.99997 1.72656 8.99997C1.72656 8.99997 1.72656 11.382 2.03056 12.5237C2.11274 12.8332 2.27479 13.1157 2.50049 13.3428C2.72619 13.57 3.00761 13.7338 3.31656 13.818C4.45081 14.1237 8.99906 14.1237 8.99906 14.1237C8.99906 14.1237 13.5473 14.1237 14.6816 13.818C14.9905 13.7338 15.2719 13.57 15.4976 13.3428C15.7233 13.1157 15.8854 12.8332 15.9676 12.5237C16.2716 11.382 16.2716 8.99997 16.2716 8.99997C16.2716 8.99997 16.2716 6.61797 15.9676 5.47647Z" fill="#EA5A47"/>
<path d="M7.51172 11.1625L11.3132 9.00002L7.51172 6.83752V11.1625Z" fill="white"/>
<path d="M15.9676 5.47647C15.8854 5.16699 15.7233 4.88452 15.4976 4.65738C15.2719 4.43023 14.9905 4.26638 14.6816 4.18222C13.5473 3.87622 8.99906 3.87622 8.99906 3.87622C8.99906 3.87622 4.45081 3.87622 3.31656 4.18222C3.00761 4.26638 2.72619 4.43023 2.50049 4.65738C2.27479 4.88452 2.11274 5.16699 2.03056 5.47647C1.72656 6.61797 1.72656 8.99997 1.72656 8.99997C1.72656 8.99997 1.72656 11.382 2.03056 12.5237C2.11274 12.8332 2.27479 13.1157 2.50049 13.3428C2.72619 13.57 3.00761 13.7338 3.31656 13.818C4.45081 14.1237 8.99906 14.1237 8.99906 14.1237C8.99906 14.1237 13.5473 14.1237 14.6816 13.818C14.9905 13.7338 15.2719 13.57 15.4976 13.3428C15.7233 13.1157 15.8854 12.8332 15.9676 12.5237C16.2716 11.382 16.2716 8.99997 16.2716 8.99997C16.2716 8.99997 16.2716 6.61797 15.9676 5.47647Z" stroke="black" stroke-width="0.5" stroke-miterlimit="10"/>
<path d="M7.51172 11.1625L11.3132 9.00002L7.51172 6.83752V11.1625Z" stroke="black" stroke-width="0.5" stroke-miterlimit="10" stroke-linecap="round" stroke-linejoin="round"/>
</svg>
